<svg width="1058" height="1311" viewBox="0 0 1058 1311" fill="none" xmlns="http://www.w3.org/2000/svg">
    <path d="M511.387 1244.47C487.508 1151.61 432.945 1096.13 359.843 1036.86C346.844 1026.32 335.124 1013.02 321.958 1002.04C303.122 986.347 279.825 973.343 259.763 958.683C243.568 946.847 231.488 929.733 213.556 919.921C192.841 908.586 173.454 893.02 154.427 878.75C136.118 865.018 125.386 845.908 110.848 828.6C99.4973 815.088 86.814 802.839 75.8087 788.962C65.1777 775.558 60.6329 759.314 50.1864 745.821C8.28301 691.696 1.62363 610.531 2.88377 545.004C3.52097 511.869 18.987 479.384 55.8802 488.065C71.2274 491.676 93.3016 511.851 106.249 520.914C127.584 535.849 146.035 563.461 159.683 585.298C172.478 605.77 186.468 623.781 198.007 645.084C206.939 661.573 220.819 675.9 227.79 692.167C232.482 703.114 264.454 704.431 274.874 704.431C288.441 704.431 326.107 725.186 330.279 702.241C332.305 691.101 345.809 691.779 351.522 683.846C358.196 674.576 365.201 663.217 365.537 651.434C365.996 635.369 373.421 621.817 373.421 605.665C373.421 594.496 373.421 583.327 373.421 572.159C373.421 549.809 378.337 520.404 370.355 499.453C366.595 489.583 370.069 473.573 361.595 465.947C351.775 457.108 347.478 434.243 340.353 422.367C322.85 393.196 324.142 360.304 322.177 325.572C321.625 315.827 316.195 307.932 314.731 298.417C313.279 288.98 315.209 279.844 312.322 270.604C307.217 254.269 310.351 234.379 310.351 217.389C310.351 186.417 327.293 152.408 341.01 124.974C346.739 113.516 347.618 103.709 361.814 105.483C371.451 106.688 393.579 116.668 399.043 125.412C411.919 146.013 428.607 173.042 428.607 198.118C428.607 220.217 437.623 240.638 440.871 263.378C447.327 308.566 464.088 354.06 472.844 398.716C474.911 409.254 473.466 426.463 483.794 432.66C489.555 436.116 487.505 444.607 490.145 450.179C493.573 457.417 500.961 460.072 503.503 467.699C510.883 489.838 534.874 437.796 540.732 433.317C551.051 425.426 546.864 405.092 546.864 393.241C546.864 384.31 547.556 367.873 540.732 361.049C533.955 354.272 532.247 370.645 529.126 353.165C524.279 326.022 520.718 299.217 516.205 272.137C511.971 246.732 516.545 222.938 509.197 197.68C503.711 178.821 507.445 154.878 507.445 135.266C507.445 121.294 503.503 108.928 503.503 95.1906C503.503 79.1547 495.332 35.8011 504.379 23.3607C518.719 3.64375 542.205 2.77527 564.384 2.77527C600.461 2.77527 621.023 31.4529 639.279 58.8376C653.725 80.5067 665.121 91.9463 665.121 119.28C665.121 144.829 665.121 170.378 665.121 195.928C665.121 237.098 665.121 278.269 665.121 319.44C665.121 334.742 657.237 345.985 657.237 360.611C657.237 370.685 657.237 380.758 657.237 390.832C657.237 399.673 651.887 452.922 661.398 456.092C683.279 463.386 685.378 481.367 710.671 463.1C716.687 458.755 720.526 435.726 724.249 428.28C731.914 412.949 732.133 398.102 732.133 381.415C732.133 337.159 734.564 295.062 740.892 251.552C744.695 225.407 743.085 191.544 755.346 170.086C764.026 154.896 753.626 115.465 776.369 117.09C815.08 119.855 863.984 177.615 866.157 215.637C869.195 268.806 866.157 320.886 866.157 373.313C866.157 400.015 854.331 423.164 854.331 450.179C854.331 454.65 851.531 476.294 855.207 478.867C862.475 483.955 879.943 444.387 882.8 440.763C893.304 427.44 903.77 411.457 909.517 395.65C912.654 387.023 923.163 380.302 925.285 372.875C931.432 351.36 942.519 326.296 957.696 311.118C969.627 299.187 987.965 282.649 1005.87 282.649C1027.67 282.649 1050.25 299.678 1051.43 322.068C1052 332.999 1055.37 343.651 1055.37 355.355C1055.37 369.031 1048.79 374.666 1045.51 387.109C1038.21 414.877 1014.62 431.998 1005 458.72C990.383 499.321 955.635 529.243 952.878 576.101C952.505 582.441 946.414 607.905 943.024 613.33C936.445 623.855 941.768 639.598 933.169 650.777C922.309 664.895 928.944 695.706 922.219 713.191C912.314 738.944 890.937 759.468 881.486 785.459C874.518 804.62 858.881 826.282 858.273 846.339C857.492 872.097 850.389 898.466 850.389 925.177C850.389 955.398 850.389 985.619 850.389 1015.84C850.389 1071.47 837.208 1146.3 860.463 1197.17C865.817 1208.88 861.418 1222.89 870.099 1234.18C873.788 1238.97 877.982 1252.37 877.982 1258.48C877.982 1275.92 886.892 1307.54 905.576 1307.54" stroke="black" stroke-width="5" stroke-linecap="round"/>
    </svg>
    